<?xml version="1.0" standalone="no"?>
<!DOCTYPE svg PUBLIC "-//W3C//DTD SVG 1.1//EN" "http://www.w3.org/Graphics/SVG/1.1/DTD/svg11.dtd" >
<!--
2013-9-30: Created.
-->
<svg>
<metadata>
Created by iconfont
</metadata>
<defs>

<font id="iconshop" horiz-adv-x="1024" >
  <font-face
    font-family="iconshop"
    font-weight="500"
    font-stretch="normal"
    units-per-em="1024"
    ascent="896"
    descent="-128"
  />
    <missing-glyph />
    
    <glyph glyph-name="delete" unicode="&#58905;" d="M487.253333 20.42311099999995H314.140444c-46.421333 0-98.986667 46.250667-98.986666 98.929778v469.902222h49.493333v-469.902222c0-23.893333 29.127111-49.493333 49.493333-49.493333H709.859556c20.366222 0 49.493333 25.6 49.493333 49.493333v469.902222h49.493333v-469.902222c0-52.679111-52.622222-98.986667-98.986666-98.986667H487.253333zM561.493333 861.297778h74.183111c64.398222 0 98.929778-47.786667 98.929778-98.929778v-49.493333h-49.493333v49.493333c0 26.624-16.497778 49.493333-49.493333 49.493333H388.380444c-32.995556 0-49.493333-22.869333-49.493333-49.493333v-49.493333h-49.493333v49.493333c0 51.143111 34.588444 98.986667 98.986666 98.986667H561.493333zM388.323556 564.565333h49.493333v-420.465777h-49.493333V564.565333z m197.859555 0h49.493333v-420.465777h-49.493333V564.565333zM91.591111 663.495111v49.493333H932.408889v-49.493333H91.591111z"  horiz-adv-x="1024" />

    
    <glyph glyph-name="arrow-l" unicode="&#58924;" d="M755.938462 784.861538L712.369231 828.430769 268.061538 384.123077 268.307692 384 268.061538 383.87692300000003 712.369231-60.430769000000055 755.938462-16.861537999999996 355.076923 384Z"  horiz-adv-x="1024" />

    
    <glyph glyph-name="just01" unicode="&#58881;" d="M386.688 281.03679999999997v133.3248c0 11.3152 9.216 20.48 20.5568 20.48 11.3664 0 20.5568-9.1648 20.5568-20.48v-133.3248h74.0352v222.1568h-128.2048c-10.9568 0-19.84 9.5744-19.84 21.3504 0 11.8016 8.8832 21.376 19.84 21.376h297.5488c10.9568 0 19.84-9.5744 19.84-21.376 0-11.776-8.8832-21.3504-19.84-21.3504H542.976v-68.352h111.5904c11.0592 0 20.0192-9.5744 20.0192-21.3504 0-11.8016-8.96-21.376-20.0192-21.376h-111.616v-111.0784h128.256c10.9312 0 19.8144-9.5488 19.8144-21.3504 0-11.776-8.8832-21.376-19.84-21.376H373.632c-10.9568 0-19.84 9.5744-19.84 21.376 0 11.776 8.8832 21.3504 19.84 21.3504h13.056zM522.4192 716.8c69.7856 0 137.2928-12.5696 200.064-33.536 22.016-7.3472 41.856-15.2064 59.264-23.1168 10.5728-4.7872 18.0736-8.576 22.1952-10.8544 6.4512-3.584 10.496-10.5472 10.496-18.176V329.472c0-122.9568-174.3872-281.856-288.3328-304.384a18.9952 18.9952 0 0 0-7.3728 0C404.736 47.615999999999985 230.4 206.51520000000005 230.4 329.472V631.1168c0 7.6288 4.0448 14.592 10.496 18.176 4.096 2.2784 11.5968 6.0672 22.1952 10.8544 17.408 7.9104 37.248 15.7696 59.2384 23.1168C385.1008 704.2304 452.608 716.8 522.4192 716.8z m243.5328-94.336a578.4064 578.4064 0 0 1-55.552 21.6576c-59.0848 19.712-122.624 31.5648-187.9808 31.5648-65.3824 0-128.9216-11.8272-188.032-31.5648a578.4064 578.4064 0 0 1-64.4864-25.856V329.472c0-98.688 154.9568-241.152 252.5184-263.1936 97.536 22.0672 252.4928 164.5056 252.4928 263.168V618.2912a431.7952 431.7952 0 0 1-8.96 4.1984z"  horiz-adv-x="1024" />

    
    <glyph glyph-name="just02" unicode="&#58882;" d="M207.9488 561.3056a18.9184 18.9184 0 0 0 8.6016 8.0128l293.888 144.3584a17.6128 17.6128 0 0 0 15.616 0l294.2464-144.512c7.424-3.6608 11.0336-11.1872 10.8544-18.6624V191.74400000000003c0-7.7824-4.2496-14.848-10.8544-18.1248l-294.0672-144.4608a17.4336 17.4336 0 0 0-16.3072 0.1792L216.2176 173.61919999999998a20.0704 20.0704 0 0 0-10.88 18.0992V551.04a20.736 20.736 0 0 0 2.9696 10.8288l-0.3584-0.5632z m60.7744-10.2656l249.5232-122.5728 249.5232 122.5728-249.5232 122.5472-249.5232-122.5472z m230.8352-157.3376L242.688 519.9359999999999v-315.392l256.8448-126.1824V393.728z m286.6432 122.4704l-249.2672-122.4704V78.33600000000001l256.8448 126.208V519.8592l-7.5776-3.712z m-497.536-125.056a19.968 19.968 0 0 0-9.1392 25.9328 18.3296 18.3296 0 0 0 24.7808 9.5744l141.056-67.968a19.968 19.968 0 0 0 9.1648-25.9584 18.3296 18.3296 0 0 0-24.7808-9.5744l-141.056 67.9936z"  horiz-adv-x="1024" />

    
    <glyph glyph-name="just03" unicode="&#58883;" d="M519.8848 28.82560000000001c-185.9072 0-336.64 153.088-336.64 341.9392 0 188.8256 150.7328 341.9136 336.64 341.9136 185.9072 0 336.6144-153.088 336.6144-341.9136 0-188.8512-150.7072-341.9392-336.64-341.9392z m0 41.216c163.5072 0 296.064 134.6304 296.064 300.7232 0 166.0928-132.5568 300.7232-296.064 300.7232S223.8208 536.832 223.8208 370.76480000000004c0-166.0928 132.5568-300.7232 296.064-300.7232z m97.664 329.216l-82.2272 1.536c-18.3296 0.3584-30.2336 19.7376-22.4768 36.608l34.3808 74.7264-139.648-141.8752h79.6416c18.432 0 30.6944-19.328 23.0656-36.352l-35.7632-79.9232 143.0272 145.28z m54.016-3.4048l-227.7376-231.3216c-19.968-20.2496-52.6592 2.7904-40.96 28.8512l60.7232 135.68h-92.7744c-22.5536 0-33.8688 27.6992-17.92 43.9296l213.12 216.4736 13.7984 14.0032c20.0448 20.352 52.864-2.9952 40.8576-29.1072l-61.1584-132.8128 94.6176-1.792c22.3232-0.384 33.2288-27.8272 17.4336-43.8784l-14.336 14.5408 14.336-14.5664z"  horiz-adv-x="1024" />

    
    <glyph glyph-name="just04" unicode="&#58884;" d="M265.5232 350.2848c-56.9856 58.496-60.2624 156.9792-7.296 219.9296 45.7728 54.4 119.6544 65.2288 176.3328 27.1104 9.7536-6.5536 22.4768-3.1488 28.416 7.6288 5.9392 10.752 2.8672 24.832-6.912 31.3856-73.3696 49.3568-168.9088 35.328-228.1216-35.0208-68.5056-81.4592-64.2816-208.8192 9.4464-284.4928L493.6448 53.75999999999999c7.936-8.1408 20.224-8.1408 28.16 0l256.256 263.04c73.7024 75.6736 77.9264 203.0592 9.4208 284.4928-68.5056 81.408-183.808 86.0928-257.536 10.4192l-91.0848-90.9312a24.5504 24.5504 0 0 1-1.4592-32.256c7.6544-9.344 20.736-10.0864 29.184-1.6384l91.2896 91.136c57.1904 58.7264 146.3552 55.1168 199.296-7.8336 52.992-62.976 49.7152-161.4336-7.2704-219.9296l-242.176-248.576-242.176 248.576z"  horiz-adv-x="1109" />

    
    <glyph glyph-name="arrow-r" unicode="&#58885;" d="M318.415596 884.889785a35.839403 35.839403 0 0 1-51.881802 0 38.655356 38.655356 0 0 1 0-53.503108l413.603773-426.318228-413.603773-426.318228a38.655356 38.655356 0 0 1 0-53.503108 35.839403 35.839403 0 0 1 51.881802 0L757.533611 377.847569a38.058032 38.058032 0 0 1 10.666489 27.22088 38.314028 38.314028 0 0 1-10.666489 27.306211L318.415596 884.889785z"  horiz-adv-x="1024" />

    
    <glyph glyph-name="ask" unicode="&#58886;" d="M528.131672 667.628498c-81.621444 0-167.215613-52.126969-185.634611-166.493299l0.601928-0.240772a43.820362 43.820362 0 0 1 41.472843-57.363743c18.65977 0 34.490477 11.918175 40.750529 28.53139l1.203856-0.481543c9.992006 74.03715 55.738538 110.152833 101.605455 110.152834 58.326828 0 99.739478-22.271338 99.739478-76.685634 0-45.92711-21.488831-66.934399-72.893487-108.888784-33.707971-28.892546-71.328474-53.752175-71.328474-122.973901v-31.902187h84.390313v31.902187c0 52.126969 36.05549 67.656713 69.823653 97.271573 52.126969 44.301905 74.398307 76.204091 74.398307 134.591112 0 102.688925-60.614155 162.520574-184.12979 162.520574M511.638843-42.044673999999986c-235.353868 0-426.16506 190.630614-426.16506 425.74371A425.924289 425.924289 0 0 0 511.638843 809.322361c235.353868 0 426.225253-190.570421 426.225253-425.683518s-190.811192-425.683518-426.16506-425.683517M511.638843 895.277686a511.638843 511.638843 0 0 1-511.638843-511.638843 511.638843 511.638843 0 0 1 511.638843-511.638843 511.638843 511.638843 0 0 1 511.638843 511.638843 511.638843 511.638843 0 0 1-511.638843 511.638843m14.867623-711.478956a56.581237 56.581237 0 0 1-57.122972-55.979308c0-30.939102 25.581942-55.979309 57.122972-55.979309a56.581237 56.581237 0 0 1 57.183165 55.979309 56.581237 56.581237 0 0 1-57.183165 55.979308"  horiz-adv-x="1024" />

    
    <glyph glyph-name="cart" unicode="&#58887;" d="M285.214118 641.385412l80.534588-350.08753c8.432941-36.864 42.767059-63.126588 82.281412-63.126588h458.029176c35.418353 0 66.981647 21.082353 79.149177 52.766118l132.517647 345.810823c2.409412 6.083765-2.409412 12.589176-9.155765 12.589177L285.214118 641.385412zM178.356706 771.011765a18.733176 18.733176 0 0 1-18.492235 14.155294h-92.16C46.983529 785.167059 30.117647 801.249882 30.117647 821.067294c0 19.877647 16.865882 35.900235 37.647059 35.900235h92.099765c44.272941 0 82.522353-29.334588 92.039529-70.595764l33.310118-144.986353-46.923294 0.12047a37.345882 37.345882 0 0 0-36.442353 27.226353 38.791529 38.791529 0 0 0-1.084236 8.794353c0 19.817412 16.926118 35.84 37.76753 35.779765l870.219294-2.168471c59.030588-0.180706 99.990588-56.199529 79.691294-109.025882l-132.517647-345.810824c-23.009882-59.994353-82.823529-99.930353-149.865412-99.930352H448.030118c-74.932706 0-139.745882 49.754353-155.828706 119.567058L178.296471 771.011765zM471.521882 12.649411999999984c0 21.805176-18.552471 39.454118-41.381647 39.454117-22.889412 0-41.441882-17.648941-41.441882-39.454117 0-21.805176 18.552471-39.514353 41.441882-39.514353 22.889412 0 41.381647 17.709176 41.381647 39.514353z m75.294118 0c0-61.44-52.224-111.314824-116.675765-111.314824s-116.736 49.814588-116.736 111.314824c0 61.44 52.284235 111.314824 116.736 111.314823 64.451765 0 116.675765-49.874824 116.675765-111.314823zM956.596706 12.649411999999984c0 21.805176-18.552471 39.454118-41.441882 39.454117-22.889412 0-41.381647-17.648941-41.381648-39.454117 0-21.805176 18.552471-39.514353 41.441883-39.514353 22.889412 0 41.381647 17.709176 41.381647 39.514353z m75.294118 0c0-61.44-52.224-111.314824-116.736-111.314824-64.451765 0-116.675765 49.814588-116.675765 111.314824 0 61.44 52.224 111.314824 116.736 111.314823 64.451765 0 116.675765-49.874824 116.675765-111.314823z"  horiz-adv-x="1204" />

    
    <glyph glyph-name="earpiece" unicode="&#58888;" d="M254.130087 462.848a377.455304 377.455304 0 1 0 754.95513 0 27.826087 27.826087 0 1 1 55.652174 0 433.107478 433.107478 0 1 1-866.259478 0 27.826087 27.826087 0 1 1 55.652174 0zM198.477913 462.848v-310.939826a27.826087 27.826087 0 1 1 55.652174 0V462.848a27.826087 27.826087 0 1 1-55.652174 0zM1009.085217 462.848v-262.945391a177.641739 177.641739 0 0 0-177.641739-177.641739 27.826087 27.826087 0 1 1 0-55.652174 233.293913 233.293913 0 0 1 233.293913 233.293913V462.848a27.826087 27.826087 0 1 1-55.652174 0zM1036.911304 476.516174a148.390957 148.390957 0 1 0 0-296.781913 27.826087 27.826087 0 1 1 0-55.652174 204.04313 204.04313 0 1 1 0 408.086261 27.826087 27.826087 0 1 1 0-55.652174zM226.304 532.1683479999999a204.04313 204.04313 0 1 1 0-408.086261 27.826087 27.826087 0 1 1 0 55.652174 148.390957 148.390957 0 1 0 0 296.781913 27.826087 27.826087 0 1 1 0 55.652174zM803.617391-5.5652169999999614a50.220522 50.220522 0 1 1-100.396521 0.089043 50.220522 50.220522 0 0 1 100.396521-0.044522z m55.652174 0a105.872696 105.872696 0 1 0-211.700869 0 105.872696 105.872696 0 0 0 211.700869 0z"  horiz-adv-x="1246" />

    
    <glyph glyph-name="top" unicode="&#58889;" d="M689.066667 269.866667a26.666667 26.666667 0 0 1 37.674666 37.717333l-201.216 201.258667a26.666667 26.666667 0 0 1-37.717333 0l-201.258667-201.258667a26.666667 26.666667 0 1 1 37.717334-37.717333l182.4 182.4 182.357333-182.4zM960 389.333333c0 250.368-202.965333 453.333333-453.333333 453.333334S53.333333 639.701333 53.333333 389.333333 256.298667-64 506.666667-64 960 138.965333 960 389.333333z m53.333333 0c0-279.850667-226.858667-506.666667-506.666666-506.666666C226.816-117.33333300000004 0 109.48266699999999 0 389.333333S226.816 896 506.666667 896C786.474667 896 1013.333333 669.184 1013.333333 389.333333z"  horiz-adv-x="1024" />

    
    <glyph glyph-name="edit" unicode="&#58890;" d="M966.283636 729.320727l-50.734545 50.827637a28.858182 28.858182 0 0 1-40.820364 0L399.034182 304.40727300000003l91.601454-91.601455 475.694546 475.694546a28.858182 28.858182 0 0 1 0 40.773818z m41.192728-81.92L511.208727 151.13309100000004a29.090909 29.090909 0 0 0-41.146182 0l-132.70109 132.747636a29.090909 29.090909 0 0 0 0 41.146182L833.582545 821.294545a87.04 87.04 0 0 0 123.066182 0l50.827637-50.827636c33.978182-33.978182 33.978182-89.088 0-123.066182zM385.489455 295.191273a29.090909 29.090909 0 1 1-55.156364 18.478545L263.447273 114.08290899999997a29.090909 29.090909 0 0 1 36.770909-36.770909l199.633454 66.792727a29.090909 29.090909 0 0 1-18.478545 55.156364l-144.244364-48.267636 48.314182 144.197818zM764.555636 711.121455l111.010909-111.057455a29.090909 29.090909 0 0 1 41.146182 41.146182L805.701818 752.174545a29.090909 29.090909 0 0 1-41.146182-41.099636zM545.373091 872.727273H203.869091A180.549818 180.549818 0 0 1 23.272727 692.130909v-625.803636a180.549818 180.549818 0 0 1 180.549818-180.549818h625.850182a180.549818 180.549818 0 0 1 180.549818 180.596363v341.504a29.090909 29.090909 0 1 1-58.181818 0v-341.550545a122.368 122.368 0 0 0-122.368-122.368H203.822545a122.368 122.368 0 0 0-122.368 122.414545V692.130909A122.368 122.368 0 0 0 203.822545 814.545455h341.550546a29.090909 29.090909 0 1 1 0 58.181818z"  horiz-adv-x="1070" />

    
    <glyph glyph-name="cart-fine" unicode="&#58891;" d="M223.822769 697.816615l81.486769-371.475692a93.223385 93.223385 0 0 1 91.057231-73.255385h446.660923c39.148308 0 74.121846 24.457846 87.552 61.243077l129.260308 353.516308a20.716308 20.716308 0 0 1-19.416615 27.805539L223.822769 697.816615zM144.265846 821.563077A29.538462 29.538462 0 0 1 115.396923 844.8H25.6a25.6 25.6 0 1 0 0 51.2h89.796923c37.927385 0 70.774154-26.387692 78.848-63.409231l29.538462-134.774154-31.901539 0.07877a25.6 25.6 0 0 0 0.157539 51.2l848.541538-2.244923a71.916308 71.916308 0 0 0 67.347692-96.571077l-129.260307-353.555693a144.423385 144.423385 0 0 0-135.640616-94.838154H396.366769a144.423385 144.423385 0 0 0-141.075692 113.506462L144.226462 821.563077zM429.883077 5.592615000000023a51.515077 51.515077 0 1 1-102.990769 0 51.515077 51.515077 0 0 1 102.990769 0z m51.2 0a102.715077 102.715077 0 1 0-205.390769 0 102.715077 102.715077 0 0 0 205.390769 0zM902.498462 5.592615000000023a51.475692 51.475692 0 1 1-102.99077 0 51.475692 51.475692 0 0 1 102.99077 0z m51.2 0a102.675692 102.675692 0 1 0-205.39077 0 102.675692 102.675692 0 0 0 205.39077 0z"  horiz-adv-x="1142" />

    
    <glyph glyph-name="pic" unicode="&#58892;" d="M512-90.11199999999997c261.632 0 474.112 212.48 474.112 474.112s-212.48 474.112-474.112 474.112-474.112-212.48-474.112-474.112 212.48-474.112 474.112-474.112z m0-37.888c-284.672 0-512 227.328-512 512s227.328 512 512 512 512-227.328 512-512-227.328-512-512-512zM265.728 554.496v-341.504h493.056v341.504h-493.056z m0 37.888h493.056c22.528 0 37.888-15.36 37.888-37.888v-341.504c0-22.528-15.36-37.888-37.888-37.888h-493.056c-22.528 0-37.888 15.36-37.888 37.888v341.504c-0.512 23.04 14.848 37.888 37.888 37.888zM682.496 440.832c0 22.528-15.36 37.888-37.888 37.888s-37.888-15.36-37.888-37.888 15.36-37.888 37.888-37.888 37.888 15.36 37.888 37.888z m-416.768-166.912v-60.928h493.056v18.944l-124.928 83.456-37.888-34.304c-26.624-22.528-72.192-22.528-94.72 3.584l-105.984 117.76-129.536-128.512z m-15.872-48.128l-22.016 63.488 147.968 147.968c11.264 11.264 30.208 11.264 41.472 0l110.08-121.344c11.264-11.264 30.208-15.36 41.472-3.584l41.472 37.888c11.264 7.68 26.624 11.264 37.888 3.584l143.872-98.816v-37.888c0-22.528-15.36-37.888-37.888-37.888H261.12l-11.264 46.592z"  horiz-adv-x="1024" />

    
    <glyph glyph-name="txt" unicode="&#58893;" d="M512-110.344828c-273.019586 0-494.344828 221.325241-494.344828 494.344828s221.325241 494.344828 494.344828 494.344828 494.344828-221.325241 494.344828-494.344828-221.325241-494.344828-494.344828-494.344828z m0 35.310345c253.528276 0 459.034483 205.506207 459.034483 459.034483s-205.506207 459.034483-459.034483 459.034483-459.034483-205.506207-459.034483-459.034483 205.506207-459.034483 459.034483-459.034483zM688.128 504.832h-132.06069v-342.157241h-43.855448v342.157241h-132.06069v36.193103h307.976828z"  horiz-adv-x="1024" />

    
    <glyph glyph-name="star" unicode="&#58894;" d="M512.060235 896L372.073412 502.723765 0 497.844706l296.598588-222.268235L195.584-128l316.476235 267.324235L828.476235-128l-101.014588 403.456 296.658824 222.328471-389.601883 6.625882z"  horiz-adv-x="1024" />

    
    <glyph glyph-name="v-share" unicode="&#58895;" d="M826.789647 173.176471c-45.056 0-84.630588-22.588235-109.568-56.982589L333.221647 425.441882c0.240941 3.072 0.903529 6.023529 0.903529 9.09553 0 12.830118-2.228706 24.997647-5.421176 36.803764l326.836706 202.571295a135.529412 135.529412 0 0 1 111.013647-58.729412C842.209882 615.183059 903.529412 678.068706 903.529412 755.6517650000001S842.209882 896 766.554353 896C690.898824 896 629.639529 833.114353 629.639529 755.6517650000001c0-8.854588 0.963765-17.287529 2.469647-25.6L301.176471 524.9505879999999a134.806588 134.806588 0 0 1-103.966118 49.995294C121.554824 574.945882 60.235294 512.0602349999999 60.235294 434.597647c0-77.583059 61.44-140.468706 136.975059-140.468706 50.176 0 93.665882 28.009412 117.458823 69.270588l377.856-304.429176a139.023059 139.023059 0 0 1-2.590117-26.202353c0-77.522824 61.259294-140.348235 136.914823-140.348235 75.655529 0 136.914824 62.825412 136.914824 140.348235C963.764706 110.29082400000004 902.445176 173.176471 826.789647 173.176471"  horiz-adv-x="1024" />

    
    <glyph glyph-name="font-warn" unicode="&#58896;" d="M512-41.98400000000004A426.24 426.24 0 0 0 85.504 384 426.24 426.24 0 0 0 512 810.048 426.24 426.24 0 0 0 938.496 384 426.24 426.24 0 0 0 512-41.98400000000004M0 384a512 512 0 0 1 512-512 512 512 0 0 1 512 512 512 512 0 0 1-512 512 512 512 0 0 1-512-512z m518.72-192a56.576 56.576 0 0 1-57.216-56c0-30.912 25.6-56 57.216-56a56.576 56.576 0 0 1 57.152 56c0 30.912-25.6 56-57.152 56M519.04 704c27.328 0 49.536-22.208 49.536-49.6v-348.8a49.6 49.6 0 1 0-99.2 0v348.8c0 27.392 22.208 49.6 49.6 49.6z"  horiz-adv-x="1024" />

    
    <glyph glyph-name="font-success" unicode="&#58897;" d="M512 822.857143A438.784 438.784 0 0 1 73.289143 384a438.784 438.784 0 1 1 877.494857 0 438.857143 438.857143 0 0 1-438.784 438.857143z m0 73.142857a512 512 0 0 0 511.926857-512 512 512 0 1 0-511.926857 512zM822.930286 596.1874290000001c31.817143-31.890286 35.766857-26.989714 27.282285-49.517715L488.009143 164.64457100000004a30.208 30.208 0 0 0-42.569143-1.097142L219.574857 378.075429v18.724571l30.061714 30.134857h11.922286L442.660571 254.976a30.134857 30.134857 0 0 1 42.569143 1.170286L814.518857 603.4285709999999c2.706286-2.121143 5.412571-4.242286 8.411429-7.241142z"  horiz-adv-x="1024" />

    
    <glyph glyph-name="sui" unicode="&#58898;" d="M560.128 465.237333c-27.648-54.272-59.392-100.352-95.232-138.24l-49.152 46.08c63.488 71.68 110.592 162.816 141.312 271.36l64.512-17.408a1579.690667 1579.690667 0 0 0-35.84-105.472c38.912-37.888 72.704-75.776 100.352-114.688l-48.128-47.104c-20.48 34.816-47.104 69.632-77.824 105.472zM700.416 853.333333c13.312-31.744 25.6-67.584 36.864-107.52h214.016v-67.584H444.416V745.8133330000001h219.136c-12.288 34.816-24.576 65.536-38.912 94.208l75.776 13.312z m115.712-211.968l64.512-17.408c-10.24-35.84-20.48-69.632-31.744-100.352 47.104-46.08 88.064-92.16 120.832-137.216l-47.104-47.104c-25.6 40.96-58.368 83.968-98.304 126.976-24.576-51.2-53.248-95.232-84.992-131.072l-48.128 45.056c56.32 69.632 98.304 156.672 124.928 261.12z m-391.168-406.528H663.552v88.064h70.656v-88.064h243.712v-67.584h-243.712v-266.24H663.552v266.24H424.96v67.584zM188.416 717.141333H68.608V788.821333H417.792v-71.68H258.048c-14.336-81.92-33.792-158.72-60.416-230.4h184.32v-537.6h-67.584v54.272H210.944v-64.512H140.288V357.71733300000005c-19.456-35.84-40.96-69.632-63.488-102.4L39.936 315.733333C114.688 432.469333 163.84 566.613333 188.416 717.141333z m22.528-645.12h103.424V419.157333H210.944v-347.136z"  horiz-adv-x="1024" />

    
    <glyph glyph-name="yan" unicode="&#58899;" d="M70.656 788.821333H350.208v-59.392c-55.296-96.256-107.52-175.104-158.72-238.592h163.84v-41.984c-4.096-133.12-30.72-245.76-81.92-336.896 28.672-26.624 58.368-47.104 89.088-61.44 89.088-37.888 229.376-57.344 420.864-59.392 65.536 0 132.096 2.048 201.728 6.144l-14.336-73.728h-153.6c-230.4 0-396.288 24.576-498.688 72.704a335.189333 335.189333 0 0 0-83.968 56.32A558.4896 558.4896 0 0 0 75.776-85.674667l-36.864 64.512A470.903467 470.903467 0 0 1 184.32 104.78933300000006c-47.104 59.392-87.04 134.144-119.808 224.256l62.464 23.552c28.672-73.728 60.416-135.168 97.28-184.32 36.864 73.728 59.392 159.744 65.536 260.096h-192.512v53.248c63.488 73.728 120.832 153.6 172.032 239.616h-198.656v67.584zM456.704 565.589333h70.656v-373.76h135.168V708.949333c-69.632-8.192-145.408-12.288-226.304-12.288l-22.528 66.56c193.536 0 354.304 23.552 481.28 69.632l35.84-62.464c-57.344-22.528-123.904-39.936-197.632-52.224v-210.944h178.176v-67.584h-178.176v-247.808h212.992v-69.632H456.704V565.589333z"  horiz-adv-x="1024" />

    
    <glyph glyph-name="laser" unicode="&#58900;" d="M474.921232 375.934164l-91.1921-300.241712 399.439455 384.632025H483.528803L545.707971 691.344463 234.511169 375.934164h240.34987z m-99.498707-120.38561h18.298613l-12.941453 17.455913 12.941453 42.736892h-44.602869l-13.001645 17.455914-5.296967-17.455914H90.650364L663.083941 896 578.272278 580.7100869999999h-16.191864l12.038561-15.650129-12.038561-44.542676h46.167881l11.978369-15.650129 4.213496 15.650129h308.006583L259.00964-128l116.412885 383.548554z"  horiz-adv-x="1024" />

    
    <glyph glyph-name="ask-fine" unicode="&#58901;" d="M960 389.333333c0 250.368-202.965333 453.333333-453.333333 453.333334S53.333333 639.701333 53.333333 389.333333 256.298667-64 506.666667-64 960 138.965333 960 389.333333z m53.333333 0c0-279.850667-226.858667-506.666667-506.666666-506.666666C226.816-117.33333300000004 0 109.48266699999999 0 389.333333S226.816 896 506.666667 896C786.474667 896 1013.333333 669.184 1013.333333 389.333333zM473.6 179.20000000000005l68.266667 0 0-85.333333-68.266667 0 0 85.333333ZM505.002667 682.666667A172.245333 172.245333 0 0 1 332.8 510.464a34.688 34.688 0 0 1 69.333333 0A103.082667 103.082667 0 0 0 505.6 613.8879999999999a103.082667 103.082667 0 0 0 103.424-103.424c0-44.8-23.893333-81.28-69.973333-100.437333-39.466667-16.725333-67.541333-49.621333-67.541334-85.504v-27.477334c0-14.933333 15.530667-31.104 34.688-31.104 19.114667 0 34.645333 16.128 34.645334 31.104V319.146667c0 21.546667 34.688 34.090667 34.688 34.090666 60.373333 26.88 102.826667 86.698667 102.826666 157.226667C677.162667 605.525333 600.064 682.666667 505.002667 682.666667z"  horiz-adv-x="1024" />

    
    <glyph glyph-name="weibo" unicode="&#58902;" d="M545.763428 190.92918499999996c-17.045696-8.4325-34.091392-8.4325-42.644356 0-8.552964 8.4325-8.552964 33.48907 8.552964 41.861338 17.045696 8.4325 34.091392 8.4325 42.644356 0 8.552964-16.744535 8.552964-33.48907-8.552964-41.861338m-127.993299-108.89971c-42.644356-8.4325-76.79598 16.744535-76.79598 50.233605 0 33.549302 34.151624 67.038373 68.243016 67.038373 51.19732 8.372268 85.348943-16.744535 85.348943-50.233605 0-33.48907-34.091392-58.666105-76.795979-67.038373m51.197319 268.033026c-221.834975-25.116803-196.236315-217.799421-196.236315-217.799421s0-58.605873 59.690052-92.094943c128.053531-58.666105 264.599794-16.744535 332.84281 58.605873 68.243016 83.722676 34.151624 276.465526-196.296547 251.288491M1085.624106 505.220496c16.804767 0 33.669767 8.4325 33.669766 25.297499 25.297499 227.496796-202.199297 193.766797-202.199296 193.766797-16.864999 0-33.729999-16.864999-33.729999-33.729999s16.864999-33.669767 33.729999-33.669766c160.036798 33.729999 126.367031-117.934532 126.367031-117.934532 8.4325-16.864999 16.864999-33.729999 42.162499-33.729999M1065.265642 888.658304c-74.808319 16.443374-157.988905 0-182.925012 0h-8.312035c-24.936106-8.251803-41.560177-24.695178-41.560177-49.390355s24.936106-49.390355 49.872212-49.390356c0 0 24.936106 0 49.872213 8.251804 16.624071 8.251803 182.985244 8.251803 257.793563-123.355425 41.560177-98.780711 16.684303-164.554209 16.684303-172.745779 0 0-8.372268-24.695178-8.372268-49.390356s24.996338-49.390355 49.932445-49.390355 41.560177 0 49.872212 41.198784C1397.987988 732.355899 1198.318441 863.963127 1065.265642 888.658304M526.790303-28.857895999999982c-217.076635-8.4325-392.412397 92.155175-392.412397 226.231921s175.335762 243.036688 392.412397 251.408955c217.016403 8.372268 392.352165-75.41064 392.352165-209.487385s-175.27553-259.781223-392.352165-268.153491m459.14961 435.719306c-50.113141 8.4325-25.056571 33.549302-25.056571 33.549303s50.052909 75.41064-8.372268 134.076745c-75.10948 67.038373-258.757277-8.4325-258.757276-8.4325-75.169712-16.744535-50.113141 8.4325-41.740874 58.666105 0 58.666105-25.056571 159.25378-208.7646 100.587676-183.647797-58.666105-342.239024-259.781223-342.239024-259.781224C-15.841053 323.138735 0.84325 214.11856 0.84325 214.11856c24.996338-234.604188 292.125883-301.642561 500.890483-318.387097 217.016403-16.804767 517.574786 67.038373 609.4288 251.348724 91.793783 184.370583-75.169712 251.408956-125.282853 259.781223"  horiz-adv-x="1325" />

    
    <glyph glyph-name="qq" unicode="&#58903;" d="M892.5184 274.6368a2069.3504 2069.3504 0 0 1-75.264 167.168 2454.6816 2454.6816 0 0 1-13.0048 160.1536h-1.024C795.7504 765.696 667.648 896 510.72 896 351.7952 896 222.5664 762.3679999999999 218.112 595.712c-2.048-20.5312-8.6016-89.088-11.6736-163.84-3.9936-7.5776-47.4112-91.648-79.7696-174.5408-32.256-82.432-54.3744-177.9712-48.9984-182.528 7.68-6.5536 78.336 60.16 120.1152 100.864 10.752-61.2352 37.5808-144.6912 103.936-197.7856-45.9264-17.0496-96.6144-46.7456-96.6144-83.1488 0-21.76 20.0192-22.7328 46.1312-22.7328H783.9232c26.112 0 46.1824 1.8944 46.1824 21.9136 0 43.2128-56.064 73.728-103.68 89.1392 66.304 52.6336 92.928 137.0624 103.6288 198.3488 43.008-41.6768 105.1648-99.5328 112.384-93.3376 5.4784 4.6592-17.1008 102.2976-49.92 186.5728"  horiz-adv-x="1024" />

    
    <glyph glyph-name="qzone" unicode="&#58904;" d="M296.852702 196.03945299999998v9.062251l347.027874 225.378681-2.713555 10.342229-409.490844 27.186752c102.910302 47.205621 453.778113 58.16224 567.747433 9.06225h18.585293l-316.410779-226.65866-18.636493-9.06225c107.620624-8.49906 309.498893-39.167354 309.498893-39.167354-163.478903-16.844522-328.135386-28.671527-495.607822-6.143899z m418.80909 371.705867c-41.164121 90.31531-109.514993 241.148021-149.245538 311.495661-17.612509 31.180286-27.801141 13.209382-41.573714-8.652658-43.519282-69.221258-127.997888-201.929468-172.13156-293.780752-77.413123-10.239831-226.146669-27.135552-314.260414-41.112922-39.525748-6.297496-48.895193-13.567776-26.623561-37.170587 61.029393-64.510936 189.232078-176.99548 247.803911-229.986605-22.476429-82.789034-48.843994-248.827894-62.104575-337.55603-3.942335-26.469963-2.40636-42.290502 22.374031-31.487481 80.433873 35.12262 242.274402 118.577243 323.425063 171.261175 107.723023-52.73513 208.329363-127.588295 309.908487-182.064196 26.162768-14.028569 55.295088-29.234718 50.482367 0-23.65401 145.149605-75.979546 392.031931-75.979547 392.031931 72.805199 66.200508 179.350641 158.819779 236.796093 217.801206 18.841289 19.40448 34.866625 31.999472 0 37.170587a6169.447004 6169.447004 0 0 1-348.871043 32.050671z"  horiz-adv-x="1126" />

    


  </font>
</defs>
</svg>
