<?xml version="1.0" encoding="utf-8"?>
<!-- Generator: Adobe Illustrator 17.0.0, SVG Export Plug-In . SVG Version: 6.00 Build 0)  -->
<!DOCTYPE svg PUBLIC "-//W3C//DTD SVG 1.1//EN" "http://www.w3.org/Graphics/SVG/1.1/DTD/svg11.dtd">
<svg version="1.1" id="_x37C_" xmlns="http://www.w3.org/2000/svg" xmlns:xlink="http://www.w3.org/1999/xlink" x="0px" y="0px"
	 width="489.37px" height="120px" viewBox="-160.689 -32.251 489.37 120" enable-background="new -160.689 -32.251 489.37 120"
	 xml:space="preserve">
<g>
	<path fill="#FFFFFF" d="M269.585-32.251c-32.637,0-59.096,26.459-59.096,59.093c0,32.637,26.459,59.096,59.096,59.096
		c32.637,0,59.096-26.455,59.096-59.096C328.681-5.793,302.226-32.251,269.585-32.251L269.585-32.251z M269.588-12.823
		c21.906,0,39.668,17.762,39.668,39.668s-17.758,39.668-39.668,39.668c-21.906,0-39.668-17.762-39.668-39.668
		S247.678-12.823,269.588-12.823z"/>
	<rect x="-160.689" y="-32.251" fill="#FFFFFF" width="19.428" height="19.428"/>
	<rect x="-160.689" y="6.605" fill="#FFFFFF" width="19.428" height="79.366"/>
	<path fill="#FFFFFF" d="M-43.709-32.251c-32.637,0-59.093,26.459-59.093,59.093c0,32.637,26.459,59.096,59.093,59.096h0.003V66.51
		h-0.003c-21.906,0-39.668-17.762-39.668-39.668s17.758-39.668,39.668-39.668S-4.041,4.935-4.041,26.841h19.428
		C15.388-5.793-11.071-32.251-43.709-32.251z"/>
	<path fill="#FFFFFF" d="M112.94-32.251c-32.637,0-59.093,26.459-59.093,59.093c0,32.637,26.455,59.096,59.093,59.096
		c32.641,0,59.096-26.455,59.096-59.096C172.036-5.793,145.577-32.251,112.94-32.251L112.94-32.251z M112.94-12.823
		c21.906,0,39.668,17.762,39.668,39.668S134.85,66.513,112.94,66.513c-21.906,0-39.668-17.762-39.668-39.668
		S91.033-12.823,112.94-12.823z"/>
	
		<rect x="-23.702" y="22.491" transform="matrix(-0.7089 0.7053 -0.7053 -0.7089 16.0642 106.7067)" fill="#FFFFFF" width="19.428" height="68.355"/>
</g>
</svg>
