<?xml version="1.0" encoding="utf-8"?>
<!-- Generator: Adobe Illustrator 17.0.0, SVG Export Plug-In . SVG Version: 6.00 Build 0)  -->
<!DOCTYPE svg PUBLIC "-//W3C//DTD SVG 1.1//EN" "http://www.w3.org/Graphics/SVG/1.1/DTD/svg11.dtd">
<svg version="1.1" id="图层_1" xmlns="http://www.w3.org/2000/svg" xmlns:xlink="http://www.w3.org/1999/xlink" x="0px" y="0px"
	 width="1131.334px" height="120px" viewBox="-162.63 2.555 1131.334 120" enable-background="new -162.63 2.555 1131.334 120"
	 xml:space="preserve">
<g>
	<g>
		<g>
			<path id="XMLID_5_" fill="#FFFFFF" d="M361.402,68.853c0.663-0.774,0.113-1.969-0.905-1.969h-33.005
				c-5.805,0-7.729,0.431-11.4,2.91l-69.866,49.86c-0.945,0.674-0.468,2.163,0.693,2.163h60.803c5.186,0,10.161-2.345,13.84-6.523
				L361.402,68.853z"/>
			<path id="XMLID_4_" fill="#FFFFFF" d="M321.564,9.364c-3.679-4.178-8.654-6.525-13.84-6.525l-57.606,0.006
				c-1.178,0-1.643,1.525-0.665,2.182l69.496,46.724c3.67,2.479,5.596,2.908,11.4,2.908h30.031c1.038,0,1.58-1.234,0.88-1.999
				L321.564,9.364z"/>
			<path id="XMLID_3_" fill="#FFFFFF" d="M410.247,115.052c3.679,4.178,8.654,6.523,13.84,6.523h60.803
				c1.16,0,1.637-1.489,0.693-2.163l-69.866-49.86c-3.67-2.479-5.596-2.91-11.4-2.91h-33.005c-1.02,0-1.568,1.196-0.905,1.969
				L410.247,115.052z"/>
			<path id="XMLID_1_" fill="#FFFFFF" d="M370.552,52.422c-0.701,0.765-0.158,1.999,0.88,1.999h30.031
				c5.805,0,7.729-0.429,11.4-2.908l69.496-46.724c0.978-0.657,0.513-2.182-0.665-2.182l-57.606-0.006
				c-5.186,0-10.161,2.345-13.84,6.525L370.552,52.422z"/>
		</g>
		<path fill="#FFFFFF" d="M27.34,4.434H-0.553c-0.659,0-1.193,0.534-1.193,1.193v91.14l-103.446-85.078
			c-9.83-8.351-9.801-9.071-37.711-9.134h-10.264c-4.304,0-5.887,0.771-7.381,2.199c-1.495,1.428-2.084,2.868-2.084,6.869v108.684
			c0,0.654,0.531,1.185,1.185,1.185h27.9c0.659,0,1.193-0.534,1.193-1.193V27.278l103.446,85.08
			c9.83,8.351,9.801,9.071,37.711,9.134h10.264c4.304,0,5.887-0.771,7.381-2.199c1.495-1.428,2.084-2.868,2.084-6.869V5.628
			C28.533,4.969,27.999,4.434,27.34,4.434z"/>
		<path fill="#FFFFFF" d="M228.462,120.111l-5.99-24.102c-0.154-0.602-0.689-1.023-1.3-1.023H85.946
			c-8.344,0-9.302-1.169-9.302-6.483V71.877h137.427c0.659,0,1.193-0.534,1.193-1.193V49.512c0-0.659-0.534-1.193-1.193-1.193
			H76.644V32.293c0-3.126,1.784-5.167,6.892-5.167h139.52c0.659,0,1.193-0.534,1.193-1.193V4.039c0-0.659-0.534-1.193-1.193-1.193
			H57.626c-4.161,0-7.114,0.984-9.058,2.755c-2.096,1.91-3.019,4.735-3.019,8.232v96.998c0,3.087,0.719,5.651,2.33,7.524
			c1.905,2.215,5.06,3.463,9.746,3.463h169.535C228.039,121.817,228.681,120.974,228.462,120.111z"/>
	</g>
	<g>
		<path fill="#FFFFFF" d="M807.245,4.042c1.972,0,3.452,1.151,3.452,3.615v30.904h-108.82v9.699
			c0,28.108-2.958,52.928-14.299,73.968h-15.945c14.303-28.437,14.464-49.148,14.464-75.614V4.042H807.245z M794.751,26.068v-9.535
			h-92.875v9.535H794.751z M773.382,89.189h-27.286c-1.313,13.314-6.573,25.806-16.929,33.203h-17.261
			c12.822-11.507,17.588-21.205,18.904-33.203h-24.82V77.023h25.15V63.875h-19.728V51.71h21.04l-7.559-10.683h16.929l7.562,10.683
			h20.55l7.723-10.683h16.766l-7.723,10.683h24.329v12.166h-22.191v13.148h27.452v12.166h-27.452v33.203h-15.454V89.189z
			 M746.59,77.023h26.791V63.875H746.59V77.023z"/>
		<path fill="#FFFFFF" d="M883.722,31.328v12.984h-35.178v6.576v6.246h22.686c3.615,0,4.93,1.807,4.93,4.933v60.325h-15.45V70.121
			h-12.492c-0.824,20.876-3.123,36.165-8.384,52.271h-15.945c8.548-23.012,9.204-46.682,9.204-73.312V6.997h15.451v24.332h11.18
			V3.71h15.451v27.619H883.722z M922.023,48.586c2.958,8.548,6.738,17.917,11.668,27.616c5.59-11.176,9.043-21.697,11.015-30.904
			h-39.778v5.59c-0.329,29.753-2.467,54.574-11.671,71.504h-15.945c11.341-20.381,12.327-46.682,12.327-73.312V9.793h41.095
			c12.166,0,20.55-0.329,33.698-4.439v13.479c-13.314,3.779-22.683,3.779-33.698,3.779h-25.806v9.702h53.257
			c2.302,0,4.603,1.972,3.944,4.766c-2.958,17.096-9.696,36.165-20.055,53.26c6.905,10.683,15.454,21.532,26.63,32.052h-18.904
			c-6.081-6.576-11.341-13.148-15.945-19.725c-5.587,7.233-11.671,13.809-18.573,19.725h-17.427
			c11.671-10.52,20.879-21.532,27.947-32.217c-8.218-13.973-14.138-27.781-18.738-41.59h14.958V48.586z"/>
		<path fill="#FFFFFF" d="M539.148,24.587c6.246,9.369,12.658,19.233,19.725,30.245c4.113-12.492,6.412-24.655,7.892-35.67h-45.039
			V5.684h58.682c2.467,0,4.769,2.138,4.108,4.93c-2.628,20.384-6.738,41.095-14.959,60.984c5.425,8.713,11.18,17.917,17.591,27.947
			l-11.671,11.012l-13.479-22.848c-6.249,11.341-13.973,22.356-23.837,32.711h-18.904c15.123-15.781,25.645-32.381,33.042-48.657
			c-11.015-17.753-20.384-32.217-30.575-47.175h17.424V24.587z M604.9,24.587c3.944,13.809,8.71,28.273,16.766,43.726
			c9.369-16.932,14.135-32.876,17.422-49.152h-51.12V5.682h65.584c3.289,0,4.603,2.138,4.113,4.93
			c-3.947,25.314-12.331,50.464-26.96,73.315c8.218,12.327,18.904,25.15,33.206,38.628h-22.356
			c-8.053-7.889-14.794-15.945-20.876-24.493c-6.741,8.548-14.464,16.605-23.342,24.329h-20.384
			c14.959-13.809,26.301-26.465,34.849-38.464c-10.52-18.412-17.917-38.301-23.834-59.341H604.9V24.587z"/>
	</g>
</g>
</svg>
