<?xml version="1.0" encoding="utf-8"?>
<!-- Generator: Adobe Illustrator 17.0.0, SVG Export Plug-In . SVG Version: 6.00 Build 0)  -->
<!DOCTYPE svg PUBLIC "-//W3C//DTD SVG 1.1//EN" "http://www.w3.org/Graphics/SVG/1.1/DTD/svg11.dtd">
<svg version="1.1" id="图层_1" xmlns="http://www.w3.org/2000/svg" xmlns:xlink="http://www.w3.org/1999/xlink" x="0px" y="0px"
	 width="504.484px" height="120px" viewBox="198.185 101.966 504.484 120" enable-background="new 198.185 101.966 504.484 120"
	 xml:space="preserve">
<g>
	<path id="XMLID_258_" fill="#FFFFFF" d="M198.186,221.743h26.527l46.813-46.64c2.948-3.121,5.548-4.161,9.19-4.161
		c3.641,0,6.242,1.04,9.189,4.161l47.333,46.64h26.701l-61.897-60.857l60.857-58.776h-26.18l-46.987,45.252
		c-2.948,2.774-5.375,3.988-8.842,3.988c-3.294,0-5.895-1.214-9.016-3.988L225.06,102.11h-26.355l61.03,58.776L198.186,221.743z"/>
	<path id="XMLID_256_" fill="#FFFFFF" d="M390.383,221.966h136.339v-17.532H410.638v-4.255c0-15.66,8.51-19.064,28.085-23.149
		l40.51-8.681c28.595-5.957,50.212-11.404,50.212-35.574c0-25.021-21.277-30.808-70.297-30.808c-32.681,0-59.063,4.255-66.383,5.617
		v17.532c7.319-1.362,35.234-5.447,66.553-5.447c37.957,0,48.51,2.383,48.51,13.106c0,11.915-11.404,13.957-34.553,18.724l-40,8.34
		c-40.17,8-42.893,25.361-42.893,41.531L390.383,221.966L390.383,221.966z"/>
	<path id="XMLID_65_" fill="#FFFFFF" d="M702.669,117.329c0,4.157-1.988,9.217-5.603,13.374l-80.783,91.263h-29.095l88.372-98.854
		H548.514v-18.614h136.083C697.79,104.497,702.669,110.461,702.669,117.329z"/>
</g>
</svg>
